<?xml version="1.0" encoding="UTF-8" standalone="no"?>
<svg
   xmlns:dc="http://purl.org/dc/elements/1.1/"
   xmlns:cc="http://creativecommons.org/ns#"
   xmlns:rdf="http://www.w3.org/1999/02/22-rdf-syntax-ns#"
   xmlns:svg="http://www.w3.org/2000/svg"
   xmlns="http://www.w3.org/2000/svg"
   xmlns:sodipodi="http://sodipodi.sourceforge.net/DTD/sodipodi-0.dtd"
   xmlns:inkscape="http://www.inkscape.org/namespaces/inkscape"
   viewBox="0 0 3589.44 2563.42"
   version="1.1"
   id="svg4768"
   sodipodi:docname="Asset3.svg"
   inkscape:version="1.0.1 (3bc2e813f5, 2020-09-07)">
  <metadata
     id="metadata4772">
    <rdf:RDF>
      <cc:Work
         rdf:about="">
        <dc:format>image/svg+xml</dc:format>
        <dc:type
           rdf:resource="http://purl.org/dc/dcmitype/StillImage" />
        <dc:title></dc:title>
      </cc:Work>
    </rdf:RDF>
  </metadata>
  <sodipodi:namedview
     pagecolor="#ffffff"
     bordercolor="#666666"
     borderopacity="1"
     objecttolerance="10"
     gridtolerance="10"
     guidetolerance="10"
     inkscape:pageopacity="0"
     inkscape:pageshadow="2"
     inkscape:window-width="1920"
     inkscape:window-height="1017"
     id="namedview4770"
     showgrid="false"
     inkscape:zoom="0.30868325"
     inkscape:cx="1794.72"
     inkscape:cy="1281.71"
     inkscape:window-x="1912"
     inkscape:window-y="-8"
     inkscape:window-maximized="1"
     inkscape:current-layer="TREES" />
  <defs
     id="defs4482">
    <style
       id="style4480">.cls-1{fill:#b59b00;}.cls-2{fill:#907b00;}.cls-3{fill:#c8d9d2;}.cls-4{fill:#e5f1ef;}.cls-11,.cls-13,.cls-23,.cls-5{fill:#fff;}.cls-5{stroke:#dbe5e5;}.cls-10,.cls-11,.cls-12,.cls-13,.cls-14,.cls-15,.cls-18,.cls-19,.cls-20,.cls-22,.cls-24,.cls-25,.cls-28,.cls-5{stroke-miterlimit:10;}.cls-13,.cls-14,.cls-15,.cls-18,.cls-19,.cls-25,.cls-5{stroke-width:6px;}.cls-6{fill:#a0505a;}.cls-10,.cls-12,.cls-14,.cls-15,.cls-18,.cls-19,.cls-22,.cls-24,.cls-27,.cls-28,.cls-7,.cls-9{fill:none;}.cls-7{stroke:#ffe700;}.cls-10,.cls-11,.cls-12,.cls-18,.cls-19,.cls-20,.cls-22,.cls-24,.cls-28,.cls-7,.cls-9{stroke-linecap:round;}.cls-27,.cls-7,.cls-9{stroke-linejoin:round;}.cls-10,.cls-11,.cls-12,.cls-20,.cls-22,.cls-24,.cls-27,.cls-28,.cls-7,.cls-9{stroke-width:5px;}.cls-20,.cls-8{fill:#423c52;}.cls-10,.cls-11,.cls-19,.cls-9{stroke:#907b00;}.cls-12{stroke:#fe552f;}.cls-13,.cls-14{stroke:#c8d9d2;}.cls-15,.cls-18{stroke:#b59b00;}.cls-16{fill:#ffe700;}.cls-17{fill:#fe552f;}.cls-20,.cls-22,.cls-24,.cls-25,.cls-27{stroke:#fff;}.cls-21{fill:#ff7500;}.cls-24{stroke-dasharray:12;}.cls-25{fill:#dbe5e5;}.cls-26{fill:#ffdb00;}.cls-28{stroke:#423c52;}</style>
  </defs>
  <g
     id="Layer_2"
     data-name="Layer 2">
    <g
       id="Слой_1"
       data-name="Слой 1">
      <g
         id="BUSHES">
        <path
           class="cls-3"
           d="m 3183.29,1749.66 a 870.78,870.78 0 0 1 -13.86,155.94 c -170.39,-3.31 -404.55,-7.24 -666,-9.87 a 873.05,873.05 0 0 1 -12.12,-146.07 c 0,-306.35 154.9,-554.69 346,-554.69 191.1,0 345.98,248.34 345.98,554.69 z"
           id="path4491" />
        <path
           class="cls-3"
           d="m 1204.26,1906.3 c -370.86,13.33 -672.58,35.33 -809.14,60.49 47.79,-75.94 212.85,-209.13 420.64,-240.39 228.55,-34.4 359.06,41.27 388.5,179.9 z"
           id="path4493" />
        <path
           class="cls-1"
           d="m 3466.45,1828.56 a 259.58,259.58 0 0 1 -13.61,83.16 h -2.81 -0.15 c -53.32,-1.34 -735.18,-18.06 -1449.27,-18.89 -309.74,-0.36 -616.33,6 -881.33,16.75 17.58,-28.65 56.76,-48.6 102.28,-48.6 22.23,0 43,4.76 60.38,13 a 134.41,134.41 0 0 1 235.47,-108.49 c 0.89,1.06 1.76,2.13 2.61,3.22 0.53,-1.08 1.07,-2.15 1.62,-3.22 52.21,-102 180,-174.14 329.37,-174.14 162.91,0 300.15,85.76 341.65,202.6 a 134.4,134.4 0 0 1 179.2,-4.19 c 60.61,-61.91 152.66,-101.41 255.73,-101.41 113.56,0 213.75,48 273.24,121 10.34,-140.53 132.84,-251.46 282.45,-251.46 156.39,-0.08 283.17,121.11 283.17,270.67 z"
           id="path4495" />
      </g>
      <path
         id="CLOUD"
         class="cls-4"
         d="m 3347.33,365.22 h -1123 c 0,-35.24 37.17,-92 217.69,-22.9 0,0 4.62,-79.95 96.34,-53.44 108.1,31.24 25.8,-88.41 119.08,-106.42 48.4,-9.34 75,17 94.16,38.7 C 2760.81,97.58 2871.18,0 3006,0 c 140.84,0 255,106.52 255,237.93 a 226.48,226.48 0 0 1 -1.29,24.13 c 14.42,-17.62 46.31,-33.38 89.82,-32.36 q 1.49,0 3,0.12 c 88.14,5.06 83.12,135.4 -5.2,135.4 z" />
      <g
         id="TREES"
         transform="translate(2100.83,-32.6)">
        <ellipse
           class="cls-2"
           cx="1116.02"
           cy="641.54999"
           rx="353.81"
           ry="594.60999"
           id="ellipse4550" />
        <path
           class="cls-1"
           d="m 1233.76,221.4 c 6.5,27.27 -1.63,53.23 -18.36,62.61 a 75.07,75.07 0 0 1 -15.62,-31.56 c -6.49,-27.27 1.62,-53.21 18.37,-62.6 a 75.26,75.26 0 0 1 15.61,31.55 z"
           id="path4552" />
        <path
           class="cls-1"
           d="m 1270.74,290.78 c -11.36,15.45 -28.5,22.69 -40.79,18.1 a 51.4,51.4 0 0 1 9.56,-22.1 c 11.36,-15.44 28.49,-22.68 40.79,-18.09 a 51.43,51.43 0 0 1 -9.56,22.09 z"
           id="path4554" />
        <path
           class="cls-1"
           d="m 1353.74,463.48 c -3.79,23.5 -18.62,41.21 -34.8,43.12 a 63.83,63.83 0 0 1 -2,-29.84 c 3.79,-23.5 18.61,-41.2 34.8,-43.1 a 63.9,63.9 0 0 1 2,29.82 z"
           id="path4556" />
        <path
           class="cls-1"
           d="m 1364.18,523.56 c -14.69,6.38 -30.1,4.4 -37,-4.08 a 43.09,43.09 0 0 1 16.19,-11.93 c 14.69,-6.37 30.09,-4.39 37,4.09 a 43,43 0 0 1 -16.19,11.92 z"
           id="path4558" />
        <path
           class="cls-1"
           d="m 1057.63,314.22 c 0,22.39 -8.55,41.55 -20.68,49.49 -12.13,-7.93 -20.68,-27.1 -20.68,-49.49 0,-22.39 8.55,-41.55 20.68,-49.49 12.13,7.95 20.68,27.12 20.68,49.49 z"
           id="path4560" />
        <path
           class="cls-1"
           d="m 1006.48,365.64 c 10.76,15.52 14,32.92 9.45,44.26 -12.23,0.33 -27.37,-8.86 -38.13,-24.38 -10.76,-15.52 -14,-32.93 -9.45,-44.26 12.23,-0.32 27.38,8.86 38.13,24.38 z"
           id="path4562" />
        <path
           class="cls-1"
           d="m 919.55,875.62 c 16.21,-4.87 31.94,-2.85 40.33,4.21 -3.1,10.5 -15.12,20.87 -31.33,25.74 -16.21,4.87 -31.95,2.85 -40.34,-4.21 3.11,-10.51 15.14,-20.87 31.34,-25.74 z"
           id="path4564" />
        <path
           class="cls-1"
           d="m 993.53,783.64 c -0.5,20.1 -8.61,27.12 -19.69,34 -10.71,-7.39 -18,-14.81 -17.46,-34.91 0.54,-20.1 14.25,-49.57 19.69,-54 5.11,4.57 17.93,34.81 17.46,54.91 z"
           id="path4566" />
        <path
           class="cls-1"
           d="m 1055.53,703.64 c -0.5,20.1 -8.61,27.12 -19.69,34 -10.71,-7.39 -18,-14.81 -17.46,-34.91 0.54,-20.1 14.25,-49.57 19.69,-54 5.11,4.57 17.93,34.81 17.46,54.91 z"
           id="path4568" />
        <path
           class="cls-1"
           d="m 1189.05,1324.47 c -0.51,20.1 -8.62,27.12 -19.69,34 -10.72,-7.4 -18,-14.81 -17.47,-34.91 0.53,-20.1 14.26,-49.57 19.7,-54 5.11,4.56 17.96,34.8 17.46,54.91 z"
           id="path4570" />
        <path
           class="cls-1"
           d="m 1065.37,1563.67 c 10.2,17.33 7,27.58 1.26,39.25 -13,-0.6 -23.08,-3.06 -33.29,-20.39 -10.21,-17.33 -14.12,-49.61 -11.84,-56.23 6.76,1.18 33.66,20.04 43.87,37.37 z"
           id="path4572" />
        <path
           class="cls-1"
           d="m 763.42,917.58 c 10.09,17.39 6.84,27.62 1,39.26 -13,-0.7 -23.06,-3.23 -33.14,-20.62 -10.08,-17.39 -13.79,-49.71 -11.46,-56.32 6.74,1.23 33.51,20.28 43.6,37.68 z"
           id="path4574" />
        <path
           class="cls-1"
           d="m 1207.1,1383.68 c -9.45,8.7 -16.28,8.1 -24.35,6.06 -1.37,-8.2 -1.19,-14.83 8.27,-23.53 9.46,-8.7 29.08,-15.49 33.53,-15 0.17,4.42 -8,23.79 -17.45,32.47 z"
           id="path4576" />
        <path
           class="cls-1"
           d="m 1080,1511.31 c 1.68,13.36 -3.56,25.34 -12,28.94 a 36,36 0 0 1 -5.81,-15.88 c -1.68,-13.36 3.55,-25.33 12,-28.94 a 36.16,36.16 0 0 1 5.81,15.88 z"
           id="path4578" />
        <line
           class="cls-15"
           x1="1109.42"
           y1="1910.05"
           x2="1109.42"
           y2="159.89"
           id="line4580" />
        <path
           class="cls-15"
           d="m 1037.75,346.08 v 166.41 a 50.86,50.86 0 0 0 50.87,50.86 v 0 a 20.81,20.81 0 0 1 20.8,20.8"
           id="path4582" />
        <path
           class="cls-15"
           d="m 1037.75,752.58 v 216 a 40.84,40.84 0 0 0 40.84,40.84 v 0 a 30.83,30.83 0 0 1 30.83,30.82"
           id="path4584" />
        <path
           class="cls-15"
           d="m 1045.71,1279.56 c 0,22.55 16.25,40.84 36.31,40.84 v 0 c 15.13,0 27.4,13.8 27.4,30.82"
           id="path4586" />
        <path
           class="cls-15"
           d="m 974,802.58 v 59.78 a 32.15,32.15 0 0 0 32.15,32.15 h 9.85 a 21.75,21.75 0 0 1 21.74,21.74"
           id="path4588" />
        <path
           class="cls-15"
           d="m 1215.59,263.05 v 98.17 a 67.88,67.88 0 0 1 -67.88,67.88 v 0 a 38.29,38.29 0 0 0 -38.29,38.3"
           id="path4590" />
        <path
           class="cls-15"
           d="m 1015.93,409.9 12.13,19.84 a 65.82,65.82 0 0 1 9.69,34.38"
           id="path4592" />
        <path
           class="cls-15"
           d="m 1170.47,1326.49 v 84.94 a 85.19,85.19 0 0 1 -30.55,65.35 l -9.6,8 a 58.3,58.3 0 0 0 -20.9,44.73"
           id="path4594" />
        <path
           class="cls-18"
           d="m 1230.34,1433.31 a 34.51,34.51 0 0 1 -34.51,34.51 h -45.91"
           id="path4596" />
        <path
           class="cls-15"
           d="m 1065,1591.29 v 237.91 a 31.43,31.43 0 0 0 31.43,31.43 v 0 a 13,13 0 0 1 13,13"
           id="path4598" />
        <ellipse
           class="cls-1"
           cx="806.53003"
           cy="1302.8"
           rx="249.5"
           ry="310.10001"
           id="ellipse4600" />
        <path
           class="cls-2"
           d="m 887.05,1181.52 c 5.22,21.88 1,42.93 -9.51,55.24 a 9.45,9.45 0 0 1 -15.22,-1.42 79.06,79.06 0 0 1 -9.25,-22.77 c -6.49,-27.27 1.63,-53.21 18.37,-62.6 a 75.14,75.14 0 0 1 15.61,31.55 z"
           id="path4602" />
        <path
           class="cls-2"
           d="m 656.24,1607.08 c 18.1,16.68 24.9,39.58 17.3,54.61 a 66.07,66.07 0 0 1 -26.84,-15.33 c -18.09,-16.69 -24.89,-39.57 -17.29,-54.61 a 66.08,66.08 0 0 1 26.83,15.33 z"
           id="path4604" />
        <path
           class="cls-1"
           d="m 629.23,1660.17 c 13.45,0.72 24.31,8 26.35,17 a 36.15,36.15 0 0 1 -16.67,2.9 c -13.44,-0.72 -24.29,-8 -26.33,-17 a 36.21,36.21 0 0 1 16.65,-2.9 z"
           id="path4606" />
        <path
           class="cls-2"
           d="m 933,1251.84 c -7,17.84 -21.73,29.22 -34.79,27.94 a 51.33,51.33 0 0 1 3.58,-23.81 c 7,-17.84 21.73,-29.23 34.79,-27.94 a 51.46,51.46 0 0 1 -3.58,23.81 z"
           id="path4608" />
        <path
           class="cls-2"
           d="m 734.78,1148.2 c 10.5,17.16 7.5,27.46 1.93,39.23 -13,-0.39 -23.13,-2.67 -33.63,-19.82 -10.5,-17.15 -15,-49.37 -12.8,-56 6.78,1.04 34,19.44 44.5,36.59 z"
           id="path4610" />
        <path
           class="cls-2"
           d="m 776.47,1145.47 c -4.34,15 -11.8,18.62 -21.45,21.58 -6.57,-7.65 -10.54,-14.64 -6.2,-29.6 4.34,-14.96 20.45,-34.33 25.4,-36.57 2.92,4.44 6.59,29.63 2.25,44.59 z"
           id="path4612" />
        <line
           class="cls-19"
           x1="798.90997"
           y1="1275.39"
           x2="798.90997"
           y2="1925.05"
           id="line4614" />
        <path
           class="cls-19"
           d="m 869.58,1255.39 v 73.21 a 106.18,106.18 0 0 1 -26.8,70.53 l -23.4,26.34 a 81.13,81.13 0 0 0 -20.47,53.88"
           id="path4616" />
        <path
           class="cls-19"
           d="m 665.23,1649.28 a 101,101 0 0 0 83.46,44.13 h 14.59 a 35.63,35.63 0 0 1 35.63,35.59"
           id="path4618" />
        <path
           class="cls-19"
           d="m 900.38,1291.36 v 17 a 13.47,13.47 0 0 1 -13.47,13.48 h -6.76 a 10.09,10.09 0 0 0 -10.09,10.09"
           id="path4620" />
        <path
           class="cls-19"
           d="m 749.75,1186.88 v 140.35 a 27.31,27.31 0 0 0 27.3,27.31 v 0 a 21.86,21.86 0 0 1 21.86,21.85"
           id="path4622" />
        <path
           class="cls-19"
           d="m 861.23,1607.22 v 10.12 a 29.77,29.77 0 0 1 -29.77,29.77 H 816 a 17.07,17.07 0 0 0 -17.07,17.07"
           id="path4624" />
        <path
           class="cls-19"
           d="m 732.07,1664.83 a 28.68,28.68 0 0 0 28.68,28.68"
           id="path4626" />
        <path
           class="cls-19"
           d="m 719.14,1214.67 v 30.73 a 19,19 0 0 0 19,19 v 0 a 11.57,11.57 0 0 1 11.61,11.6"
           id="path4628" />
      </g>
      <g
         id="GRASS-2"
         data-name="GRASS">
        <polygon
           class="cls-2"
           points="1364.81,1908.14 1237.11,1778.29 1381.53,1878.37 1376.84,1783.38 1444.53,1865.99 1432.59,1570.37 1483.02,1834.14 1531.29,1788.32 1526.82,1867.66 1581.32,1845.14 1538.47,1906.96 "
           id="polygon4638" />
        <polygon
           class="cls-2"
           points="2734.55,1905.81 2676.82,1862.68 2728.58,1869.98 2729.25,1824.19 2760.43,1858.7 2774.37,1629.09 2813.52,1854.71 2838.07,1793.66 2847.37,1875.95 2891.83,1846.09 2867.27,1906.78 "
           id="polygon4640" />
        <path
           class="cls-2"
           d="m 2695.76,1823.66 a 36.54,36.54 0 0 1 -2.42,13.13 c -15.67,-2.44 -27.71,-16.91 -27.71,-34.37 a 36.71,36.71 0 0 1 2.41,-13.13 c 15.68,2.43 27.72,16.89 27.72,34.37 z"
           id="path4642" />
        <path
           class="cls-2"
           d="m 3293.72,1713.62 a 36.56,36.56 0 0 1 -5.64,12.1 c -14.56,-6.31 -22.56,-23.35 -18.16,-40.24 a 36.63,36.63 0 0 1 5.65,-12.11 c 14.56,6.31 22.56,23.34 18.15,40.25 z"
           id="path4644" />
        <path
           class="cls-2"
           d="m 3327.47,1736.65 a 68.41,68.41 0 0 1 -19.15,6.42 c -5.25,-18.61 7.81,-41.54 31.51,-53.53 a 68.47,68.47 0 0 1 19.16,-6.42 c 5.26,18.6 -7.8,41.53 -31.52,53.53 z"
           id="path4646" />
        <path
           class="cls-1"
           d="m 1260.71,1831.84 c 7.21,7.26 6.93,12.71 5.55,19.19 -6.49,1.33 -11.76,1.39 -19,-5.88 -7.24,-7.27 -13.19,-22.68 -12.9,-26.23 3.51,-0.27 19.14,5.65 26.35,12.92 z"
           id="path4648" />
        <path
           class="cls-2"
           d="m 3564.17,1985.85 a 39.81,39.81 0 0 1 -11.18,3.74 c -3.06,-10.86 4.56,-24.25 18.4,-31.25 a 40.27,40.27 0 0 1 11.18,-3.75 c 3.08,10.86 -4.57,24.25 -18.4,31.26 z"
           id="path4650" />
        <path
           class="cls-2"
           d="M 3463.22,2103.88 H 3336 l -66.81,-37.17 123,27.86 -50,-55.51 48.27,22.9 -4.6,-66.79 34.93,59.9 a 3.19,3.19 0 0 0 6,-1.56 l -20.36,-295.65 53.29,222.36 48.58,-139.22 -14.5,207.28 95.64,-44.7 -72.66,73.83 a 67.36,67.36 0 0 1 -53.56,26.47 z"
           id="path4652" />
        <path
           class="cls-2"
           d="m 1578.36,1812.84 c -9.45,8.71 -16.28,8.1 -24.35,6.07 -1.37,-8.21 -1.19,-14.83 8.26,-23.53 9.45,-8.7 29.09,-15.49 33.54,-15 0.19,4.42 -8,23.76 -17.45,32.46 z"
           id="path4654" />
      </g>
    </g>
  </g>
</svg>
