<svg id="Layer_1" enable-background="new 0 0 512 512" height="512" viewBox="0 0 512 512" width="512" xmlns="http://www.w3.org/2000/svg"><g><g><path clip-rule="evenodd" d="m355.325 504.5h65.964l10.251-64.461-15.135-54.238c-15.334-23.598-44.326-39.159-73.943-50.12l-17.293 81.243c-1.477 6.901 30.156 68.011 30.156 87.576z" fill="#9dc6fb" fill-rule="evenodd"/></g><g><path clip-rule="evenodd" d="m319.432 217.011c33.962-8.547 43.531-42.056 22.376-64.375h-33.933z" fill="#ffcebf" fill-rule="evenodd"/></g><g><path clip-rule="evenodd" d="m133.58 416.924 80.701 27.744 93.593-27.744v-92.261c-9.939-2.783-19.309-5.14-27.544-7.241-4.316-1.107-6.9-3.067-6.9-7.809h-105.405c0 4.742-2.584 6.702-6.872 7.809-8.235 2.101-17.634 4.458-27.573 7.241l-12.892 40.977z" fill="#9dc6fb" fill-rule="evenodd"/></g><g><path clip-rule="evenodd" d="m220.728 362.346c28.992 0 52.703-23.74 52.703-52.733v-22.036c-8.576 6.474-17.975 11.813-27.8 15.448-9.002 3.351-16.952 5.026-24.903 5.026s-15.902-1.675-24.903-5.026c-9.825-3.635-19.196-8.973-27.8-15.448v22.036c0 28.993 23.71 52.733 52.703 52.733z" fill="#ffdfcf" fill-rule="evenodd"/></g><g><path clip-rule="evenodd" d="m99.647 152.636c-21.155 22.32-11.586 55.828 22.404 64.375-.511-3.266 23.881-30.583 23.881-33.735l-11.926-37.853z" fill="#ffcebf" fill-rule="evenodd"/></g><g><path clip-rule="evenodd" d="m9.518 497.372c.483 5.566 3.408 7.128 11.131 7.128h65.51c0-17.208 36.83-73.548 35.097-80.391l-22.262-88.427c-41.827 15.476-82.405 40.153-85.018 83.628l-4.458 73.86z" fill="#9dc6fb" fill-rule="evenodd"/></g><g><path clip-rule="evenodd" d="m122.052 217.011c3.833 24.876 21.808 52.307 45.973 70.566 8.604 6.474 17.975 11.813 27.8 15.448 9.002 3.351 16.952 5.026 24.903 5.026s15.902-1.675 24.903-5.026c9.825-3.635 19.224-8.973 27.8-15.448 24.165-18.259 42.14-45.69 46.002-70.566.511-3.266.767-6.503.767-9.655v-49.212c-58.127-12.438-142.264-12.182-198.942 0v49.212c-.001 3.152.283 6.39.794 9.655z" fill="#ffeee6" fill-rule="evenodd"/></g><g><path clip-rule="evenodd" d="m110.921 115.067 109.807 10.194 109.807-10.194-12.892-45.492h-193.831z" fill="#365e7d" fill-rule="evenodd"/></g><g><path clip-rule="evenodd" d="m190.23 318.7c11.046 4.089 20.757 6.134 30.497 6.134 27.005 0 30.128-11.359 31.86.085 1.647 10.848 3.464 13.318 10.677 15.76 6.389-8.718 10.166-19.48 10.166-31.066v-1.789-20.247c-8.576 6.474-17.975 11.813-27.8 15.448-9.002 3.351-16.952 5.026-24.903 5.026s-15.902-1.675-24.903-5.026c-9.825-3.635-19.196-8.973-27.8-15.448v20.247c7.128 4.345 14.568 8.036 22.206 10.876z" fill="#ffcebf" fill-rule="evenodd"/></g><g><path clip-rule="evenodd" d="m263.265 340.679c5.594 1.448 11.557 3.01 17.747 4.742 8.661 2.414 17.747 5.14 26.863 8.263v-29.021c-9.939-2.783-19.309-5.14-27.544-7.241-4.316-1.107-6.9-3.067-6.9-7.809 0 11.586-3.777 22.348-10.166 31.066z" fill="#80b4fb" fill-rule="evenodd"/></g><g><path clip-rule="evenodd" d="m342.461 367.997c19.338 9.768 36.46 22.235 47.052 38.534v34.758 39.017 24.194h31.775c-2.726-.114-4.884-2.357-4.884-5.111v-39.841-38.989-34.758c-15.334-23.598-44.326-39.159-73.943-50.12z" fill="#80b4fb" fill-rule="evenodd"/></g><g><path clip-rule="evenodd" d="m307.875 416.924 16.555 18.117 18.031-18.117v-81.243c-11.699-4.316-23.483-7.923-34.586-11.018z" fill="#ffe07d" fill-rule="evenodd"/></g><g><path clip-rule="evenodd" d="m315.599 356.439c9.144 3.379 18.23 7.213 26.863 11.557v-32.316c-11.699-4.316-23.483-7.923-34.586-11.018v29.021c2.583.882 5.139 1.819 7.723 2.756z" fill="#ffd064" fill-rule="evenodd"/></g><g><path clip-rule="evenodd" d="m98.994 416.924 16.271 22.717 18.315-22.717v-92.261c-11.074 3.095-22.887 6.702-34.586 11.018z" fill="#ffe07d" fill-rule="evenodd"/></g><g><path clip-rule="evenodd" d="m86.159 504.5h134.569 134.597v-74.74c0-7.071-5.793-12.835-12.863-12.835h-34.586-174.296-34.586c-7.071 0-12.835 5.765-12.835 12.835z" fill="#d09080" fill-rule="evenodd"/></g><g><path clip-rule="evenodd" d="m123.812 69.575h193.831l-8.434-29.788c-5.508-19.423-18.968-32.287-34.983-32.287h-33.962-73.034c-15.987 0-29.475 12.864-34.984 32.287z" fill="#d8a595" fill-rule="evenodd"/></g><g><path clip-rule="evenodd" d="m268.433 39.787 8.434 29.788h40.777l-8.434-29.788c-5.509-19.423-18.969-32.287-34.984-32.287h-33.962-6.787c15.988 0 29.476 12.864 34.956 32.287z" fill="#d09080" fill-rule="evenodd"/></g><g><path clip-rule="evenodd" d="m289.758 115.067h40.777l-12.892-45.492h-40.776z" fill="#2b4d66" fill-rule="evenodd"/></g><g><path clip-rule="evenodd" d="m320.199 176.404v-18.259c-63.266-13.545-140.106-12.665-198.942 0v18.259c30.469 5.026 64.942 7.27 99.471 7.951 25.784-.511 51.567-1.874 75.647-4.657v9.485c0 3.18-.284 6.389-.767 9.683-6.531 42.112-54.492 91.012-98.704 91.012-7.951 0-15.902-1.675-24.903-4.998-5.48-2.045-10.79-4.572-15.93-7.554 3.777 3.635 7.752 7.071 11.955 10.251 8.604 6.474 17.975 11.813 27.8 15.448 9.002 3.351 16.952 5.026 24.903 5.026s15.902-1.675 24.903-5.026c9.825-3.635 19.224-8.973 27.8-15.448 24.165-18.259 42.14-45.69 46.002-70.566.511-3.266.767-6.503.767-9.655v-30.952z" fill="#ffdfcf" fill-rule="evenodd"/></g><g><path clip-rule="evenodd" d="m121.257 158.145c28.708 5.821 64.061 8.121 99.471 8.746 35.438-.625 70.791-2.925 99.471-8.746 7.724-1.562 14.965-3.379 21.609-5.509 18.344-5.85 31.974-13.914 38.193-24.961 6.815-12.125-3.635-12.608-14.596-12.608h-34.87-109.807-109.807-34.871c-10.932 0-21.411.483-14.596 12.608 6.219 11.046 19.877 19.111 38.193 24.961 6.645 2.13 13.886 3.947 21.61 5.509z" fill="#d8a595" fill-rule="evenodd"/></g><g><path clip-rule="evenodd" d="m341.808 152.636c18.344-5.85 31.974-13.914 38.193-24.961 6.815-12.125-3.635-12.608-14.596-12.608h-34.87-5.14c1.477 0 2.896.028 4.288.085 8.774.341 15.305 2.3 9.541 12.523-6.219 11.046-19.849 19.111-38.193 24.961-1.42.454-2.896.909-4.401 1.335-.085.028-.17.057-.256.085-5.338 1.533-10.989 2.896-16.952 4.089-23.171 4.714-50.687 7.128-79.083 8.178 6.758.256 13.573.454 20.388.568 26.124-.454 52.22-1.817 75.647-4.856 4.373-.568 8.661-1.193 12.863-1.874 3.748-.625 7.411-1.278 10.961-2.016 7.725-1.562 14.966-3.379 21.61-5.509z" fill="#d09080" fill-rule="evenodd"/></g><g><path clip-rule="evenodd" d="m326.276 433.196v71.304h29.049v-74.74c0-7.071-5.793-12.835-12.863-12.835h-17.293-11.756c7.071 0 12.863 5.765 12.863 12.835z" fill="#ce775f" fill-rule="evenodd"/></g><g><path clip-rule="evenodd" d="m416.405 431.634h57.587v-75.422c0-2.811-2.3-5.083-5.083-5.083h-23.711-23.711c-2.811 0-5.083 2.272-5.083 5.083v29.589 45.833z" fill="#d09080" fill-rule="evenodd"/></g><g><path clip-rule="evenodd" d="m421.487 504.5h47.421c2.783 0 5.083-2.3 5.083-5.111v-50.915h-57.587v50.915c.001 2.811 2.272 5.111 5.083 5.111z" fill="#d09080" fill-rule="evenodd"/></g><g><path clip-rule="evenodd" d="m455.307 356.212v64.347h18.685v-64.347c0-2.811-2.3-5.083-5.083-5.083h-18.685c2.783 0 5.083 2.272 5.083 5.083z" fill="#ce775f" fill-rule="evenodd"/></g><g><path clip-rule="evenodd" d="m455.307 459.548v39.841c0 2.811-2.3 5.111-5.083 5.111h18.685c2.783 0 5.083-2.3 5.083-5.111v-39.841z" fill="#ce775f" fill-rule="evenodd"/></g><g><path clip-rule="evenodd" d="m416.405 420.559h57.587v38.989h-57.587z" fill="#ffe07d" fill-rule="evenodd"/></g><g><path clip-rule="evenodd" d="m455.307 420.559h18.685v38.989h-18.685z" fill="#ffd064" fill-rule="evenodd"/></g><g><path d="m152.724 196.235c-2.974 2.883-3.048 7.631-.164 10.605 2.882 2.974 7.63 3.049 10.605.165 3.566-3.457 9.593-3.455 13.155 0 1.457 1.413 3.34 2.115 5.22 2.115 1.959 0 3.915-.763 5.386-2.28 2.884-2.974 2.81-7.722-.164-10.605-9.385-9.098-24.653-9.096-34.038 0z"/><path d="m265.135 207.005c3.628-3.516 9.549-3.511 13.196.012 1.456 1.405 3.333 2.104 5.208 2.104 1.964 0 3.926-.767 5.397-2.292 2.876-2.98 2.792-7.728-.188-10.605-9.408-9.079-24.685-9.073-34.056.012-2.974 2.883-3.048 7.631-.164 10.605 2.883 2.973 7.631 3.048 10.607.164z"/><path d="m220.732 267.497c8.47 0 16.432-3.298 22.423-9.289 2.929-2.929 2.929-7.678 0-10.606-2.93-2.929-7.678-2.929-10.607 0-3.157 3.157-7.353 4.895-11.815 4.895-.004 0-.009 0-.013 0-4.454-.003-8.636-1.739-11.774-4.887-2.926-2.934-7.675-2.94-10.606-.016-2.934 2.924-2.94 7.673-.017 10.606 5.971 5.989 13.921 9.29 22.386 9.296.007.001.015.001.023.001z"/><path d="m320.767 453.212h-17.634c-4.143 0-7.5 3.358-7.5 7.5s3.357 7.5 7.5 7.5h17.634c4.143 0 7.5-3.358 7.5-7.5s-3.358-7.5-7.5-7.5z"/><path d="m138.351 453.212h-17.662c-4.143 0-7.5 3.358-7.5 7.5s3.357 7.5 7.5 7.5h17.662c4.143 0 7.5-3.358 7.5-7.5s-3.358-7.5-7.5-7.5z"/><path d="m502.558 163.991c-4.143 0-7.5 3.358-7.5 7.5v80.25c0 11.867-9.654 21.521-21.521 21.521h-20.839v-101.771c0-4.142-3.357-7.5-7.5-7.5s-7.5 3.358-7.5 7.5v101.771h-20.868c-11.851 0-21.492-9.654-21.492-21.521v-80.25c0-4.142-3.357-7.5-7.5-7.5s-7.5 3.358-7.5 7.5v80.25c0 20.138 16.37 36.521 36.492 36.521h20.868v55.367h-16.211c-6.938 0-12.583 5.645-12.583 12.583v9.082c-16.817-16.039-39.826-27.603-63.024-36.283-.51-.262-1.054-.465-1.624-.605-11.59-4.269-23.191-7.826-34.056-10.871-.154-.05-.312-.091-.47-.131-8.894-2.485-17.288-4.63-24.764-6.538l-2.771-.708c-.604-.155-1.006-.296-1.263-.402-.001-.043-.002-.091-.002-.143v-18.42c22.519-18.024 39.697-43.592 45.027-68.297 16.653-5.517 28.519-16.937 32.869-31.907 3.379-11.625 1.518-24.002-4.883-34.688 16.125-6.491 26.867-14.773 32.595-24.952 3.595-6.396 4.097-11.896 1.492-16.347-4.351-7.436-14.484-7.436-22.626-7.436h-29.2l-19.78-69.826c-6.501-22.926-23.065-37.74-42.198-37.74h-106.996c-19.133 0-35.696 14.814-42.199 37.743l-19.781 69.824h-29.2c-8.139 0-18.269 0-22.622 7.44-2.604 4.452-2.104 9.951 1.49 16.346 5.727 10.177 16.469 18.459 32.594 24.948-6.401 10.685-8.261 23.06-4.882 34.682 4.351 14.967 16.215 26.384 32.867 31.904 5.329 24.703 22.508 50.274 45.027 68.301v18.424c0 .054-.001.104-.002.15-.252.104-.644.242-1.229.394l-2.956.756c-7.423 1.897-15.648 4.006-24.29 6.409-.293.061-.577.144-.857.238-10.981 3.069-22.624 6.64-34.234 10.91-.369.104-.726.235-1.07.392-10.536 3.915-21.018 8.405-30.906 13.651-36.943 19.603-56.622 45.29-58.49 76.345l-4.458 73.864c-.293 4.901-.072 10.463 3.789 14.563 3.914 4.156 9.693 4.716 14.829 4.716h400.639c.034 0 .066-.005.1-.005.033 0 .066.005.099.005h47.421c6.938 0 12.583-5.657 12.583-12.611v-143.177c0-6.938-5.645-12.583-12.583-12.583h-16.21v-55.367h20.839c20.138 0 36.521-16.383 36.521-36.521v-80.25c-.001-4.142-3.359-7.5-7.501-7.5zm-187.183 170.657c6.42 1.918 13.001 4.02 19.586 6.345v68.458l-19.586.069zm29.049-147.845c-2.369 8.15-8.282 14.814-16.725 19.162v-41.71c4.069-.925 7.929-1.916 11.592-2.969 5.766 7.78 7.645 16.873 5.133 25.517zm-214.946-109.728h76.427c4.143 0 7.5-3.358 7.5-7.5s-3.357-7.5-7.5-7.5h-72.178l5.734-20.242c4.624-16.3 15.523-26.833 27.769-26.833h106.996c12.246 0 23.146 10.533 27.769 26.831l5.735 20.244h-67.153c-4.143 0-7.5 3.358-7.5 7.5s3.357 7.5 7.5 7.5h71.402l8.638 30.492h-199.777zm-15.721 128.88c-8.443-4.349-14.355-11.011-16.724-19.158-2.512-8.642-.634-17.732 5.131-25.511 3.664 1.054 7.524 2.044 11.593 2.969zm-45.765-81.954c-.217-.386-.395-.729-.541-1.031 2.66-.403 297.954-.403 297.954-.403 1.669 0 5.938 0 8.6.401-.146.302-.323.644-.54 1.029-8.494 15.094-41.884 33.483-152.737 35.393-110.854-1.91-144.244-20.299-152.736-35.389zm60.765 83.355v-40.136c24.472 4.184 54.943 6.539 91.843 7.17.042 0 .085.001.128.001s.086 0 .128-.001c36.9-.632 67.371-2.986 91.844-7.17v40.137c0 33.475-32.558 74.894-69.686 88.64-8.347 3.108-15.429 4.555-22.286 4.555-6.856 0-13.938-1.447-22.298-4.559-37.115-13.752-69.673-55.171-69.673-88.637zm137.174 94.212v8.046c0 24.941-20.278 45.232-45.203 45.232s-45.203-20.291-45.203-45.232v-8.048c5.71 3.367 11.627 6.244 17.684 8.488 10.075 3.75 18.819 5.498 27.52 5.498s17.445-1.747 27.508-5.493c6.059-2.245 11.98-5.123 17.694-8.491zm-159.437 39.404c6.574-2.315 13.146-4.406 19.586-6.323v74.775h-19.586zm-15 69.903c-7.508 2.993-12.835 10.322-12.835 18.884v67.241h-58.009c-1.875 0-3.002-.112-3.652-.219-.056-.596-.086-1.584.008-3.159l4.458-73.862c1.555-25.84 18.089-46.773 50.548-63.997 6.254-3.318 12.808-6.317 19.483-9.07v64.182zm256.33 86.125h-254.165v-67.24c0-2.942 2.394-5.335 5.335-5.335h101.062c4.143 0 7.5-3.358 7.5-7.5s-3.357-7.5-7.5-7.5h-58.976v-79.027c6.696-1.811 13.094-3.45 18.972-4.952l2.418-.619c6.754 25.87 30.313 45.019 58.258 45.019 27.948 0 51.509-19.15 58.26-45.026l2.268.58c5.855 1.495 12.306 3.143 19.12 4.99v79.184l-62.546-.148c-4.143.015-7.488 3.384-7.474 7.526.015 4.133 3.369 7.474 7.499 7.474.009 0 .042.369.051.369l104.586-.369h.021c1.395 0 2.718.553 3.728 1.558 1.021 1.018 1.584 2.359 1.584 3.778v67.238zm61.08 0h-46.08v-67.24c0-5.437-2.131-10.553-5.999-14.406-1.998-1.99-4.33-3.492-6.864-4.492v-64.146c23.907 9.87 46.203 23.085 58.943 41.375zm57.587 0h-42.587v-29.952h42.587zm0-44.952h-42.587v-23.989h42.587zm0-93.419v54.43h-42.587v-54.43z"/></g></g></svg>